<svg class="svg-icon" style="width: 1em; height: 1em;vertical-align: middle;fill: currentColor;overflow: hidden;" viewBox="0 0 1024 1024" version="1.1" xmlns="http://www.w3.org/2000/svg"><path d="M22.368 294.24l198.464 0 0 708.384-198.464 0 0-708.384zM298.912 300.768l202.944-241.952c27.552-32.896 81.664-44.576 105.408-33.376 0 0 5.152 2.432 0 0-4.832-2.272 0 0 0 0 31.2 14.752 52.992 61.408 48.672 104.16l-18.976 187.872 280.48 0c50.912 0 94.368 45.024 82.08 83.488-12.288 38.496-137.632 541.408-159.552 572.384-21.888 30.944-65.728 29.28-90.272 29.28l-450.816 0 0-701.856z"  /></svg>